<mxfile host="drawio-plugin" modified="2023-01-28T19:19:24.979Z" agent="5.0 (Windows NT 6.2; Win64; x64) AppleWebKit/537.36 (KHTML, like Gecko) Chrome/104.0.5112.102 Safari/537.36" etag="ObHw81NFzovnpxlDPvBI" version="20.5.3" type="embed"><diagram id="KYMnBfscnvEaKblxRNpz" name="Stránka-1"><mxGraphModel dx="2435" dy="2159" grid="1" gridSize="10" guides="1" tooltips="1" connect="1" arrows="1" fold="1" page="1" pageScale="1" pageWidth="827" pageHeight="1169" math="0" shadow="0"><root><mxCell id="0"/><mxCell id="1" parent="0"/><mxCell id="yyIVK5xDwPPaCWqVj29X-18" value="Future upgrades" style="swimlane;whiteSpace=wrap;html=1;" parent="1" vertex="1"><mxGeometry x="-520" y="460" width="290" height="242.5" as="geometry"><mxRectangle x="100" y="410" width="140" height="30" as="alternateBounds"/></mxGeometry></mxCell><mxCell id="0ib9g5Wia52lME8o8J_j-13" value="Data API" style="rounded=0;whiteSpace=wrap;html=1;" parent="yyIVK5xDwPPaCWqVj29X-18" vertex="1"><mxGeometry x="19" y="190" width="124" height="30" as="geometry"/></mxCell><mxCell id="0ib9g5Wia52lME8o8J_j-51" value="&lt;span style=&quot;color: rgba(0, 0, 0, 0); font-family: monospace; font-size: 0px; text-align: start; background-color: rgb(251, 251, 251);&quot;&gt;%3CmxGraphModel%3E%3Croot%3E%3CmxCell%20id%3D%220%22%2F%3E%3CmxCell%20id%3D%221%22%20parent%3D%220%22%2F%3E%3CmxCell%20id%3D%222%22%20value%3D%22%22%20style%3D%22shape%3Dimage%3Bhtml%3D1%3BverticalAlign%3Dtop%3BverticalLabelPosition%3Dbottom%3BlabelBackgroundColor%3D%23ffffff%3BimageAspect%3D0%3Baspect%3Dfixed%3Bimage%3Dhttps%3A%2F%2Fcdn1.iconfinder.com%2Fdata%2Ficons%2Funicons-line-vol-3%2F24%2Fdocker-128.png%3Brounded%3D0%3BfillStyle%3Dauto%3B%22%20vertex%3D%221%22%20parent%3D%221%22%3E%3CmxGeometry%20x%3D%22570%22%20y%3D%22215%22%20width%3D%2230%22%20height%3D%2230%22%20as%3D%22geometry%22%2F%3E%3C%2FmxCell%3E%3C%2Froot%3E%3C%2FmxGraphModel%3E&lt;/span&gt;" style="shape=image;html=1;verticalAlign=top;verticalLabelPosition=bottom;labelBackgroundColor=#ffffff;imageAspect=0;aspect=fixed;image=https://cdn1.iconfinder.com/data/icons/unicons-line-vol-3/24/docker-128.png;rounded=0;fillStyle=auto;" parent="yyIVK5xDwPPaCWqVj29X-18" vertex="1"><mxGeometry x="10" y="180" width="30" height="30" as="geometry"/></mxCell><mxCell id="SdzmBVPmldJGy04V2Yd1-1" value="Log aggregator" style="rounded=0;whiteSpace=wrap;html=1;" parent="yyIVK5xDwPPaCWqVj29X-18" vertex="1"><mxGeometry x="20" y="55" width="120" height="55" as="geometry"/></mxCell><mxCell id="SdzmBVPmldJGy04V2Yd1-6" value="Grafana" style="rounded=0;whiteSpace=wrap;html=1;" parent="yyIVK5xDwPPaCWqVj29X-18" vertex="1"><mxGeometry x="20" y="125" width="120" height="55" as="geometry"/></mxCell><mxCell id="SdzmBVPmldJGy04V2Yd1-9" value="" style="shape=image;html=1;verticalAlign=top;verticalLabelPosition=bottom;labelBackgroundColor=#ffffff;imageAspect=0;aspect=fixed;image=https://cdn1.iconfinder.com/data/icons/unicons-line-vol-3/24/docker-128.png;rounded=0;fillStyle=auto;" parent="yyIVK5xDwPPaCWqVj29X-18" vertex="1"><mxGeometry x="10" y="40" width="30" height="30" as="geometry"/></mxCell><mxCell id="SdzmBVPmldJGy04V2Yd1-10" value="" style="shape=image;html=1;verticalAlign=top;verticalLabelPosition=bottom;labelBackgroundColor=#ffffff;imageAspect=0;aspect=fixed;image=https://cdn1.iconfinder.com/data/icons/unicons-line-vol-3/24/docker-128.png;rounded=0;fillStyle=auto;" parent="yyIVK5xDwPPaCWqVj29X-18" vertex="1"><mxGeometry x="10" y="110" width="30" height="30" as="geometry"/></mxCell><mxCell id="yyIVK5xDwPPaCWqVj29X-11" value="Docker swarm" style="rounded=0;whiteSpace=wrap;html=1;" parent="yyIVK5xDwPPaCWqVj29X-18" vertex="1"><mxGeometry x="152" y="100" width="117" height="50" as="geometry"/></mxCell><mxCell id="yyIVK5xDwPPaCWqVj29X-14" value="Output database" style="rounded=0;whiteSpace=wrap;html=1;" parent="yyIVK5xDwPPaCWqVj29X-18" vertex="1"><mxGeometry x="152" y="57.5" width="124" height="30" as="geometry"/></mxCell><mxCell id="yyIVK5xDwPPaCWqVj29X-15" value="&lt;span style=&quot;color: rgba(0, 0, 0, 0); font-family: monospace; font-size: 0px; text-align: start; background-color: rgb(251, 251, 251);&quot;&gt;%3CmxGraphModel%3E%3Croot%3E%3CmxCell%20id%3D%220%22%2F%3E%3CmxCell%20id%3D%221%22%20parent%3D%220%22%2F%3E%3CmxCell%20id%3D%222%22%20value%3D%22%22%20style%3D%22shape%3Dimage%3Bhtml%3D1%3BverticalAlign%3Dtop%3BverticalLabelPosition%3Dbottom%3BlabelBackgroundColor%3D%23ffffff%3BimageAspect%3D0%3Baspect%3Dfixed%3Bimage%3Dhttps%3A%2F%2Fcdn1.iconfinder.com%2Fdata%2Ficons%2Funicons-line-vol-3%2F24%2Fdocker-128.png%3Brounded%3D0%3BfillStyle%3Dauto%3B%22%20vertex%3D%221%22%20parent%3D%221%22%3E%3CmxGeometry%20x%3D%22570%22%20y%3D%22215%22%20width%3D%2230%22%20height%3D%2230%22%20as%3D%22geometry%22%2F%3E%3C%2FmxCell%3E%3C%2Froot%3E%3C%2FmxGraphModel%3E&lt;/span&gt;" style="shape=image;html=1;verticalAlign=top;verticalLabelPosition=bottom;labelBackgroundColor=#ffffff;imageAspect=0;aspect=fixed;image=https://cdn1.iconfinder.com/data/icons/unicons-line-vol-3/24/docker-128.png;rounded=0;fillStyle=auto;" parent="yyIVK5xDwPPaCWqVj29X-18" vertex="1"><mxGeometry x="143" y="47.5" width="30" height="30" as="geometry"/></mxCell><mxCell id="yyIVK5xDwPPaCWqVj29X-16" value="FS container" style="rounded=0;whiteSpace=wrap;html=1;" parent="yyIVK5xDwPPaCWqVj29X-18" vertex="1"><mxGeometry x="155.5" y="160" width="117" height="50" as="geometry"/></mxCell><mxCell id="yyIVK5xDwPPaCWqVj29X-17" value="&lt;span style=&quot;color: rgba(0, 0, 0, 0); font-family: monospace; font-size: 0px; text-align: start; background-color: rgb(251, 251, 251);&quot;&gt;%3CmxGraphModel%3E%3Croot%3E%3CmxCell%20id%3D%220%22%2F%3E%3CmxCell%20id%3D%221%22%20parent%3D%220%22%2F%3E%3CmxCell%20id%3D%222%22%20value%3D%22%22%20style%3D%22shape%3Dimage%3Bhtml%3D1%3BverticalAlign%3Dtop%3BverticalLabelPosition%3Dbottom%3BlabelBackgroundColor%3D%23ffffff%3BimageAspect%3D0%3Baspect%3Dfixed%3Bimage%3Dhttps%3A%2F%2Fcdn1.iconfinder.com%2Fdata%2Ficons%2Funicons-line-vol-3%2F24%2Fdocker-128.png%3Brounded%3D0%3BfillStyle%3Dauto%3B%22%20vertex%3D%221%22%20parent%3D%221%22%3E%3CmxGeometry%20x%3D%22570%22%20y%3D%22215%22%20width%3D%2230%22%20height%3D%2230%22%20as%3D%22geometry%22%2F%3E%3C%2FmxCell%3E%3C%2Froot%3E%3C%2FmxGraphModel%3E&lt;/span&gt;" style="shape=image;html=1;verticalAlign=top;verticalLabelPosition=bottom;labelBackgroundColor=#ffffff;imageAspect=0;aspect=fixed;image=https://cdn1.iconfinder.com/data/icons/unicons-line-vol-3/24/docker-128.png;rounded=0;fillStyle=auto;" parent="yyIVK5xDwPPaCWqVj29X-18" vertex="1"><mxGeometry x="143" y="150" width="30" height="30" as="geometry"/></mxCell><mxCell id="Dsx0A1ppSfF5X20VQ2LK-5" value="MLPSuite Infrastructure" style="swimlane;whiteSpace=wrap;html=1;fontSize=11;fillColor=#e1d5e7;strokeColor=#9673a6;align=left;spacingLeft=20;" parent="1" vertex="1"><mxGeometry x="-510" y="-430" width="1180" height="580" as="geometry"><mxRectangle x="-510" y="-430" width="130" height="30" as="alternateBounds"/></mxGeometry></mxCell><mxCell id="0ib9g5Wia52lME8o8J_j-1" value="Spark Streaming" style="swimlane;whiteSpace=wrap;html=1;" parent="Dsx0A1ppSfF5X20VQ2LK-5" vertex="1"><mxGeometry x="551" y="350" width="200" height="200" as="geometry"><mxRectangle x="314" y="130" width="140" height="30" as="alternateBounds"/></mxGeometry></mxCell><mxCell id="0ib9g5Wia52lME8o8J_j-2" value="Driver" style="rounded=0;whiteSpace=wrap;html=1;fillColor=#dae8fc;strokeColor=#6c8ebf;" parent="0ib9g5Wia52lME8o8J_j-1" vertex="1"><mxGeometry x="16" y="30" width="174" height="30" as="geometry"/></mxCell><mxCell id="0ib9g5Wia52lME8o8J_j-3" value="Executor/s" style="rounded=0;whiteSpace=wrap;html=1;fillColor=#dae8fc;strokeColor=#6c8ebf;" parent="0ib9g5Wia52lME8o8J_j-1" vertex="1"><mxGeometry x="16" y="70" width="174" height="120" as="geometry"/></mxCell><mxCell id="0ib9g5Wia52lME8o8J_j-10" style="edgeStyle=orthogonalEdgeStyle;rounded=0;orthogonalLoop=1;jettySize=auto;html=1;entryX=0;entryY=0.5;entryDx=0;entryDy=0;" parent="Dsx0A1ppSfF5X20VQ2LK-5" source="0ib9g5Wia52lME8o8J_j-5" target="0ib9g5Wia52lME8o8J_j-1" edge="1"><mxGeometry relative="1" as="geometry"/></mxCell><mxCell id="0ib9g5Wia52lME8o8J_j-5" value="Input Kafka" style="rounded=0;whiteSpace=wrap;html=1;fillColor=#dae8fc;strokeColor=#6c8ebf;" parent="Dsx0A1ppSfF5X20VQ2LK-5" vertex="1"><mxGeometry x="347" y="422.5" width="120" height="55" as="geometry"/></mxCell><mxCell id="0ib9g5Wia52lME8o8J_j-7" value="Output Kafka" style="rounded=0;whiteSpace=wrap;html=1;fillColor=#dae8fc;strokeColor=#6c8ebf;" parent="Dsx0A1ppSfF5X20VQ2LK-5" vertex="1"><mxGeometry x="817" y="422.5" width="120" height="55" as="geometry"/></mxCell><mxCell id="0ib9g5Wia52lME8o8J_j-11" style="edgeStyle=orthogonalEdgeStyle;rounded=0;orthogonalLoop=1;jettySize=auto;html=1;entryX=0;entryY=0.5;entryDx=0;entryDy=0;" parent="Dsx0A1ppSfF5X20VQ2LK-5" source="0ib9g5Wia52lME8o8J_j-1" target="0ib9g5Wia52lME8o8J_j-7" edge="1"><mxGeometry relative="1" as="geometry"/></mxCell><mxCell id="yyIVK5xDwPPaCWqVj29X-6" style="edgeStyle=orthogonalEdgeStyle;rounded=0;orthogonalLoop=1;jettySize=auto;html=1;entryX=0;entryY=0.25;entryDx=0;entryDy=0;" parent="Dsx0A1ppSfF5X20VQ2LK-5" source="yyIVK5xDwPPaCWqVj29X-5" target="0ib9g5Wia52lME8o8J_j-1" edge="1"><mxGeometry relative="1" as="geometry"><Array as="points"><mxPoint x="507" y="324"/><mxPoint x="507" y="400"/></Array></mxGeometry></mxCell><mxCell id="yyIVK5xDwPPaCWqVj29X-7" value="Read train data" style="edgeLabel;html=1;align=center;verticalAlign=middle;resizable=0;points=[];" parent="yyIVK5xDwPPaCWqVj29X-6" vertex="1" connectable="0"><mxGeometry x="-0.6212" y="-1" relative="1" as="geometry"><mxPoint x="59" y="-1" as="offset"/></mxGeometry></mxCell><mxCell id="yyIVK5xDwPPaCWqVj29X-5" value="shared&lt;br&gt;folder" style="shape=cylinder3;whiteSpace=wrap;html=1;boundedLbl=1;backgroundOutline=1;size=15;fillColor=#bac8d3;strokeColor=#23445d;" parent="Dsx0A1ppSfF5X20VQ2LK-5" vertex="1"><mxGeometry x="317" y="220" width="70" height="72.5" as="geometry"/></mxCell><mxCell id="yyIVK5xDwPPaCWqVj29X-19" style="edgeStyle=orthogonalEdgeStyle;rounded=0;orthogonalLoop=1;jettySize=auto;html=1;entryX=1;entryY=0.5;entryDx=0;entryDy=0;entryPerimeter=0;startArrow=classic;startFill=1;exitX=0.066;exitY=-0.001;exitDx=0;exitDy=0;exitPerimeter=0;" parent="Dsx0A1ppSfF5X20VQ2LK-5" source="0ib9g5Wia52lME8o8J_j-1" target="yyIVK5xDwPPaCWqVj29X-5" edge="1"><mxGeometry relative="1" as="geometry"><mxPoint x="550" y="360" as="sourcePoint"/></mxGeometry></mxCell><mxCell id="yyIVK5xDwPPaCWqVj29X-20" value="R/W trained model" style="edgeLabel;html=1;align=center;verticalAlign=middle;resizable=0;points=[];" parent="yyIVK5xDwPPaCWqVj29X-19" vertex="1" connectable="0"><mxGeometry x="0.286" y="3" relative="1" as="geometry"><mxPoint y="-2" as="offset"/></mxGeometry></mxCell><mxCell id="yyIVK5xDwPPaCWqVj29X-23" style="edgeStyle=orthogonalEdgeStyle;rounded=0;orthogonalLoop=1;jettySize=auto;html=1;entryX=0;entryY=0;entryDx=0;entryDy=25.625;entryPerimeter=0;startArrow=classic;startFill=1;" parent="Dsx0A1ppSfF5X20VQ2LK-5" source="yyIVK5xDwPPaCWqVj29X-22" target="yyIVK5xDwPPaCWqVj29X-5" edge="1"><mxGeometry relative="1" as="geometry"/></mxCell><mxCell id="yyIVK5xDwPPaCWqVj29X-26" value="analyse/transform data" style="edgeLabel;html=1;align=center;verticalAlign=middle;resizable=0;points=[];" parent="yyIVK5xDwPPaCWqVj29X-23" vertex="1" connectable="0"><mxGeometry x="0.1634" y="4" relative="1" as="geometry"><mxPoint x="-11" y="17" as="offset"/></mxGeometry></mxCell><mxCell id="yyIVK5xDwPPaCWqVj29X-22" value="Jupyterlab" style="rounded=0;whiteSpace=wrap;html=1;fillColor=#dae8fc;strokeColor=#6c8ebf;" parent="Dsx0A1ppSfF5X20VQ2LK-5" vertex="1"><mxGeometry x="140" y="330" width="120" height="53" as="geometry"/></mxCell><mxCell id="Dsx0A1ppSfF5X20VQ2LK-4" style="rounded=0;orthogonalLoop=1;jettySize=auto;html=1;exitX=1;exitY=1;exitDx=0;exitDy=0;entryX=0.145;entryY=0;entryDx=0;entryDy=4.35;entryPerimeter=0;endArrow=none;endFill=0;" parent="Dsx0A1ppSfF5X20VQ2LK-5" source="Dsx0A1ppSfF5X20VQ2LK-3" target="yyIVK5xDwPPaCWqVj29X-5" edge="1"><mxGeometry relative="1" as="geometry"/></mxCell><mxCell id="Dsx0A1ppSfF5X20VQ2LK-3" value="&lt;font style=&quot;font-size: 11px;&quot;&gt;spark submit jar dependencies, engine config file, ..&lt;/font&gt;" style="ellipse;whiteSpace=wrap;html=1;fontColor=#666666;labelBorderColor=none;fillColor=default;strokeColor=#999999;dashed=1;" parent="Dsx0A1ppSfF5X20VQ2LK-5" vertex="1"><mxGeometry x="187" y="90" width="110" height="100" as="geometry"/></mxCell><mxCell id="Dsx0A1ppSfF5X20VQ2LK-6" value="MLPSuite Engine" style="swimlane;whiteSpace=wrap;html=1;fontSize=11;align=left;spacingLeft=20;fillColor=#d5e8d4;strokeColor=#82b366;" parent="1" vertex="1"><mxGeometry x="-510" y="-710" width="530" height="200" as="geometry"><mxRectangle x="-510" y="-710" width="130" height="30" as="alternateBounds"/></mxGeometry></mxCell><mxCell id="0ib9g5Wia52lME8o8J_j-32" value="" style="group" parent="Dsx0A1ppSfF5X20VQ2LK-6" vertex="1" connectable="0"><mxGeometry x="43.5" y="60" width="326.5" height="60" as="geometry"/></mxCell><mxCell id="0ib9g5Wia52lME8o8J_j-29" value="Application logic" style="rounded=0;whiteSpace=wrap;html=1;fillStyle=auto;align=left;spacingLeft=10;fontStyle=1" parent="0ib9g5Wia52lME8o8J_j-32" vertex="1"><mxGeometry width="326.5" height="60" as="geometry"/></mxCell><mxCell id="0ib9g5Wia52lME8o8J_j-30" value="Training" style="rounded=0;whiteSpace=wrap;html=1;fillStyle=auto;fillColor=#f5f5f5;fontColor=#333333;strokeColor=#666666;" parent="0ib9g5Wia52lME8o8J_j-32" vertex="1"><mxGeometry x="152.57009345794393" y="10" width="81.37071651090343" height="40" as="geometry"/></mxCell><mxCell id="0ib9g5Wia52lME8o8J_j-31" value="Evaluation" style="rounded=0;whiteSpace=wrap;html=1;fillStyle=auto;fillColor=#f5f5f5;fontColor=#333333;strokeColor=#666666;" parent="0ib9g5Wia52lME8o8J_j-32" vertex="1"><mxGeometry x="238.00934579439254" y="10" width="77.30218068535827" height="40" as="geometry"/></mxCell><mxCell id="Dsx0A1ppSfF5X20VQ2LK-11" value="class Interface(path_to_config)" style="rounded=0;whiteSpace=wrap;html=1;fontSize=11;fillColor=#ffe6cc;strokeColor=#d79b00;" parent="Dsx0A1ppSfF5X20VQ2LK-6" vertex="1"><mxGeometry x="43.5" y="120" width="326.5" height="20" as="geometry"/></mxCell><mxCell id="Dsx0A1ppSfF5X20VQ2LK-16" style="edgeStyle=none;curved=1;orthogonalLoop=1;jettySize=auto;html=1;exitX=0.5;exitY=1;exitDx=0;exitDy=0;entryX=0.187;entryY=0.003;entryDx=0;entryDy=0;dashed=1;fontSize=11;fontColor=#666666;endArrow=none;endFill=0;entryPerimeter=0;" parent="1" source="Dsx0A1ppSfF5X20VQ2LK-14" target="0ib9g5Wia52lME8o8J_j-1" edge="1"><mxGeometry relative="1" as="geometry"/></mxCell><mxCell id="Dsx0A1ppSfF5X20VQ2LK-14" value="spark-submit" style="ellipse;whiteSpace=wrap;html=1;dashed=1;labelBorderColor=none;strokeColor=#999999;fontSize=11;fontColor=#666666;fillColor=default;" parent="1" vertex="1"><mxGeometry x="45" y="-500" width="70" height="50" as="geometry"/></mxCell><mxCell id="Dsx0A1ppSfF5X20VQ2LK-17" style="edgeStyle=none;orthogonalLoop=1;jettySize=auto;html=1;exitX=1;exitY=1;exitDx=0;exitDy=0;dashed=1;fontSize=11;fontColor=#666666;endArrow=none;endFill=0;" parent="1" source="Dsx0A1ppSfF5X20VQ2LK-11" target="Dsx0A1ppSfF5X20VQ2LK-14" edge="1"><mxGeometry relative="1" as="geometry"/></mxCell><mxCell id="Dsx0A1ppSfF5X20VQ2LK-18" value="MLPSuite&amp;nbsp;" style="swimlane;whiteSpace=wrap;html=1;fontSize=11;align=left;spacingLeft=20;fillColor=#b1ddf0;strokeColor=#10739e;" parent="1" vertex="1"><mxGeometry x="140" y="-710" width="530" height="200" as="geometry"><mxRectangle x="-510" y="-710" width="130" height="30" as="alternateBounds"/></mxGeometry></mxCell><mxCell id="Dsx0A1ppSfF5X20VQ2LK-19" value="" style="group" parent="Dsx0A1ppSfF5X20VQ2LK-18" vertex="1" connectable="0"><mxGeometry x="43.5" y="60" width="326.5" height="60" as="geometry"/></mxCell><mxCell id="Dsx0A1ppSfF5X20VQ2LK-20" value="Application logic" style="rounded=0;whiteSpace=wrap;html=1;fillStyle=auto;align=left;spacingLeft=10;fontStyle=1" parent="Dsx0A1ppSfF5X20VQ2LK-19" vertex="1"><mxGeometry width="326.5" height="60" as="geometry"/></mxCell><mxCell id="Dsx0A1ppSfF5X20VQ2LK-21" value="Training" style="rounded=0;whiteSpace=wrap;html=1;fillStyle=auto;fillColor=#f5f5f5;fontColor=#333333;strokeColor=#666666;" parent="Dsx0A1ppSfF5X20VQ2LK-19" vertex="1"><mxGeometry x="152.57009345794393" y="10" width="81.37071651090343" height="40" as="geometry"/></mxCell><mxCell id="Dsx0A1ppSfF5X20VQ2LK-22" value="Evaluation" style="rounded=0;whiteSpace=wrap;html=1;fillStyle=auto;fillColor=#f5f5f5;fontColor=#333333;strokeColor=#666666;" parent="Dsx0A1ppSfF5X20VQ2LK-19" vertex="1"><mxGeometry x="238.00934579439254" y="10" width="77.30218068535827" height="40" as="geometry"/></mxCell><mxCell id="Dsx0A1ppSfF5X20VQ2LK-23" value="class Interface(path_to_config)" style="rounded=0;whiteSpace=wrap;html=1;fontSize=11;fillColor=#ffe6cc;strokeColor=#d79b00;" parent="Dsx0A1ppSfF5X20VQ2LK-18" vertex="1"><mxGeometry x="43.5" y="120" width="326.5" height="20" as="geometry"/></mxCell></root></mxGraphModel></diagram></mxfile>